<svg xmlns="http://www.w3.org/2000/svg" xmlns:xlink="http://www.w3.org/1999/xlink" contentStyleType="text/css" data-diagram-type="DESCRIPTION" height="157px" preserveAspectRatio="none" style="width:1279px;height:157px;background:#FFFFFF;" version="1.1" viewBox="0 0 1279 157" width="1279px" zoomAndPan="magnify"><defs><style type="text/css">@import url('https://fonts.googleapis.com/css?family=Roboto:400,100,100italic,300,300italic,400italic,500,500italic,700,700italic,900,900italic');</style></defs><g><!--cluster VPS--><g class="cluster" data-entity="VPS" data-source-line="9" data-uid="ent0004" id="cluster_VPS"><polygon fill="none" points="461.06,16,471.06,6,935.57,6,935.57,130,925.57,140,461.06,140,461.06,16" style="stroke:#181818;stroke-width:1;"/><line style="stroke:#181818;stroke-width:1;" x1="925.57" x2="935.57" y1="16" y2="6"/><line style="stroke:#181818;stroke-width:1;" x1="461.06" x2="925.57" y1="16" y2="16"/><line style="stroke:#181818;stroke-width:1;" x1="925.57" x2="925.57" y1="16" y2="140"/><text fill="#000000" font-family="Roboto" font-size="14" font-weight="bold" lengthAdjust="spacing" textLength="66.9307" x="660.8497" y="31.9951">VPS App</text><text fill="#000000" font-family="Roboto" font-size="14" font-weight="bold" lengthAdjust="spacing" textLength="253.3877" x="567.6212" y="48.292">(2 vCPU / 4 GB / Debian/Ubuntu)</text></g><!--entity RP--><g class="entity" data-entity="RP" data-source-line="10" data-uid="ent0005" id="entity_RP"><polygon fill="#F1F1F1" points="477.06,71.7,487.06,61.7,617.7465,61.7,617.7465,114.2938,607.7465,124.2938,477.06,124.2938,477.06,71.7" style="stroke:#181818;stroke-width:0.5;"/><line style="stroke:#181818;stroke-width:0.5;" x1="607.7465" x2="617.7465" y1="71.7" y2="61.7"/><line style="stroke:#181818;stroke-width:0.5;" x1="477.06" x2="607.7465" y1="71.7" y2="71.7"/><line style="stroke:#181818;stroke-width:0.5;" x1="607.7465" x2="607.7465" y1="71.7" y2="124.2938"/><text fill="#000000" font-family="Roboto" font-size="14" lengthAdjust="spacing" textLength="100.6865" x="492.06" y="94.6951">Reverse Proxy</text><text fill="#000000" font-family="Roboto" font-size="14" lengthAdjust="spacing" textLength="100.4609" x="492.06" y="110.992">(Nginx/Caddy)</text></g><!--entity APP--><g class="entity" data-entity="APP" data-source-line="11" data-uid="ent0006" id="entity_APP"><polygon fill="#F1F1F1" points="763.75,71.7,773.75,61.7,919.5713,61.7,919.5713,114.2938,909.5713,124.2938,763.75,124.2938,763.75,71.7" style="stroke:#181818;stroke-width:0.5;"/><line style="stroke:#181818;stroke-width:0.5;" x1="909.5713" x2="919.5713" y1="71.7" y2="61.7"/><line style="stroke:#181818;stroke-width:0.5;" x1="763.75" x2="909.5713" y1="71.7" y2="71.7"/><line style="stroke:#181818;stroke-width:0.5;" x1="909.5713" x2="909.5713" y1="71.7" y2="124.2938"/><text fill="#000000" font-family="Roboto" font-size="14" lengthAdjust="spacing" textLength="87.3428" x="778.75" y="94.6951">Phoenix App</text><text fill="#000000" font-family="Roboto" font-size="14" lengthAdjust="spacing" textLength="115.8213" x="778.75" y="110.992">(API + LiveView)</text></g><!--entity U--><g class="entity" data-entity="U" data-source-line="5" data-uid="ent0002" id="entity_U"><ellipse cx="36.249" cy="63.35" fill="#F1F1F1" rx="8" ry="8" style="stroke:#181818;stroke-width:0.5;"/><path d="M36.249,71.35 L36.249,98.35 M23.249,79.35 L49.249,79.35 M36.249,98.35 L23.249,113.35 M36.249,98.35 L49.249,113.35" fill="none" style="stroke:#181818;stroke-width:0.5;"/><text fill="#000000" font-family="Roboto" font-size="14" lengthAdjust="spacing" textLength="60.498" x="6" y="127.8451">Usuarios</text></g><!--entity CF--><g class="entity" data-entity="CF" data-source-line="7" data-uid="ent0003" id="entity_CF"><polygon fill="#F1F1F1" points="169.5,71.7,179.5,61.7,334.0645,61.7,334.0645,114.2938,324.0645,124.2938,169.5,124.2938,169.5,71.7" style="stroke:#181818;stroke-width:0.5;"/><line style="stroke:#181818;stroke-width:0.5;" x1="324.0645" x2="334.0645" y1="71.7" y2="61.7"/><line style="stroke:#181818;stroke-width:0.5;" x1="169.5" x2="324.0645" y1="71.7" y2="71.7"/><line style="stroke:#181818;stroke-width:0.5;" x1="324.0645" x2="324.0645" y1="71.7" y2="124.2938"/><text fill="#000000" font-family="Roboto" font-size="14" lengthAdjust="spacing" textLength="71.7568" x="184.5" y="94.6951">Cloudflare</text><text fill="#000000" font-family="Roboto" font-size="14" lengthAdjust="spacing" textLength="124.5645" x="184.5" y="110.992">(DNS / TLS / CDN)</text></g><!--entity PG--><g class="entity" data-entity="PG" data-source-line="14" data-uid="ent0007" id="entity_PG"><path d="M1048.57,72.2 C1048.57,62.2 1155.4455,62.2 1155.4455,62.2 C1155.4455,62.2 1262.321,62.2 1262.321,72.2 L1262.321,113.7938 C1262.321,123.7938 1155.4455,123.7938 1155.4455,123.7938 C1155.4455,123.7938 1048.57,123.7938 1048.57,113.7938 L1048.57,72.2" fill="#F1F1F1" style="stroke:#181818;stroke-width:0.5;"/><path d="M1048.57,72.2 C1048.57,82.2 1155.4455,82.2 1155.4455,82.2 C1155.4455,82.2 1262.321,82.2 1262.321,72.2" fill="none" style="stroke:#181818;stroke-width:0.5;"/><text fill="#000000" font-family="Roboto" font-size="14" lengthAdjust="spacing" textLength="162.8457" x="1058.57" y="99.1951">PostgreSQL gestionado</text><text fill="#000000" font-family="Roboto" font-size="14" lengthAdjust="spacing" textLength="193.751" x="1058.57" y="115.492">(Neon / Supabase / Render)</text></g><!--link U to CF--><g class="link" data-entity-1="U" data-entity-2="CF" data-source-line="16" data-uid="lnk8" id="link_U_CF"><path d="M66.94,93 C93.41,93 127.42,93 163.36,93" fill="none" id="U-to-CF" style="stroke:#181818;stroke-width:1;"/><polygon fill="#181818" points="169.36,93,160.36,89,164.36,93,160.36,97,169.36,93" style="stroke:#181818;stroke-width:1;"/><text fill="#000000" font-family="Roboto" font-size="13" lengthAdjust="spacing" textLength="41.7485" x="97.5" y="89.0669">HTTPS</text></g><!--link CF to RP--><g class="link" data-entity-1="CF" data-entity-2="RP" data-source-line="17" data-uid="lnk9" id="link_CF_RP"><path d="M334.18,93 C378.99,93 428.01,93 470.8,93" fill="none" id="CF-to-RP" style="stroke:#181818;stroke-width:1;"/><polygon fill="#181818" points="476.8,93,467.8,89,471.8,93,467.8,97,476.8,93" style="stroke:#181818;stroke-width:1;"/><text fill="#000000" font-family="Roboto" font-size="13" lengthAdjust="spacing" textLength="79.46" x="365.06" y="89.0669">HTTPS (TLS)</text></g><!--link RP to APP--><g class="link" data-entity-1="RP" data-entity-2="APP" data-source-line="18" data-uid="lnk10" id="link_RP_APP"><path d="M618.04,93 C661.76,93 712.22,93 757.34,93" fill="none" id="RP-to-APP" style="stroke:#181818;stroke-width:1;"/><polygon fill="#181818" points="763.34,93,754.34,89,758.34,93,754.34,97,763.34,93" style="stroke:#181818;stroke-width:1;"/><text fill="#000000" font-family="Roboto" font-size="13" lengthAdjust="spacing" textLength="84.1128" x="648.75" y="89.0669">HTTP interno</text></g><!--link APP to PG--><g class="link" data-entity-1="APP" data-entity-2="PG" data-source-line="19" data-uid="lnk11" id="link_APP_PG"><path d="M919.73,93 C958.5,93 1000.1,93 1042.27,93" fill="none" id="APP-to-PG" style="stroke:#181818;stroke-width:1;"/><polygon fill="#181818" points="1048.27,93,1039.27,89,1043.27,93,1039.27,97,1048.27,93" style="stroke:#181818;stroke-width:1;"/><text fill="#000000" font-family="Roboto" font-size="13" lengthAdjust="spacing" textLength="65.2095" x="952.57" y="89.0669">Conn. TLS</text></g><!--SRC=[JP3BQiCm44Nt-eeXguII6afNNHHIcwI5O5GxpgeREHexeiwCaUGyAFttIdLIkf74lMSUkXqs7Zo3DUtUWpOMTzum2VTfg5TM7S3jbUQJeHOQrJdyvsXirD3v9PFFrG6Xu9ez2w5sdYrCAZSeQzXDG3ceX23M29Equq4tdRBuGTCiBo61pJgUQPRFVj5qUMEtieH5tmVm0Owfh0Br2AkNS6LO6qL9LG_aXx4imby2O2mjy8ZM8KZBvqjeaBU6pacgjBwCU27_MBbd97E-Zbh8DxY3jJdYrk1fX1TIYcyXjFAgLYwMiFEjnV9z3Iswc5W8AOv1fh1UEVGZc421fD6ERUHAY0hcy-VmHtY2ryr6bY8yerB8cmBJ4CXC127gOVJL04CUBR68KhJaAZWf4zt727y0]--></g></svg>