<svg xmlns="http://www.w3.org/2000/svg" xmlns:xlink="http://www.w3.org/1999/xlink" contentStyleType="text/css" data-diagram-type="DESCRIPTION" height="522px" preserveAspectRatio="none" style="width:239px;height:522px;background:#FFFFFF;" version="1.1" viewBox="0 0 239 522" width="239px" zoomAndPan="magnify"><defs/><g><!--cluster Internet--><g class="cluster" data-entity="Internet" data-source-line="1" data-uid="ent0002" id="cluster_Internet"><polygon fill="none" points="16,16,26,6,210,6,210,98.3,200,108.3,16,108.3,16,16" style="stroke:#181818;stroke-width:1;"/><line style="stroke:#181818;stroke-width:1;" x1="200" x2="210" y1="16" y2="6"/><line style="stroke:#181818;stroke-width:1;" x1="16" x2="200" y1="16" y2="16"/><line style="stroke:#181818;stroke-width:1;" x1="200" x2="200" y1="16" y2="108.3"/><text fill="#000000" font-family="sans-serif" font-size="14" font-weight="bold" lengthAdjust="spacing" textLength="64.4219" x="76.7891" y="31.9951">Internet</text></g><!--cluster Servidor VPS--><g class="cluster" data-entity="Servidor VPS" data-source-line="4" data-uid="ent0004" id="cluster_Servidor VPS"><polygon fill="none" points="32,167.3,42,157.3,220,157.3,220,495.19,210,505.19,32,505.19,32,167.3" style="stroke:#181818;stroke-width:1;"/><line style="stroke:#181818;stroke-width:1;" x1="210" x2="220" y1="167.3" y2="157.3"/><line style="stroke:#181818;stroke-width:1;" x1="32" x2="210" y1="167.3" y2="167.3"/><line style="stroke:#181818;stroke-width:1;" x1="210" x2="210" y1="167.3" y2="505.19"/><text fill="#000000" font-family="sans-serif" font-size="14" font-weight="bold" lengthAdjust="spacing" textLength="103.0039" x="70.498" y="183.2951">Servidor VPS</text></g><!--entity Cliente (Browser)--><g class="entity" data-entity="Cliente (Browser)" data-source-line="2" data-uid="ent0003" id="entity_Cliente (Browser)"><rect fill="#F1F1F1" height="46.2969" rx="2.5" ry="2.5" style="stroke:#181818;stroke-width:0.5;" width="161.5566" x="32.22" y="46"/><rect fill="#F1F1F1" height="10" style="stroke:#181818;stroke-width:0.5;" width="15" x="173.7766" y="51"/><rect fill="#F1F1F1" height="2" style="stroke:#181818;stroke-width:0.5;" width="4" x="171.7766" y="53"/><rect fill="#F1F1F1" height="2" style="stroke:#181818;stroke-width:0.5;" width="4" x="171.7766" y="57"/><text fill="#000000" font-family="sans-serif" font-size="14" lengthAdjust="spacing" textLength="121.5566" x="47.22" y="78.9951">Cliente (Browser)</text></g><!--entity Nginx/HTTPS--><g class="entity" data-entity="Nginx/HTTPS" data-source-line="5" data-uid="ent0005" id="entity_Nginx/HTTPS"><rect fill="#F1F1F1" height="46.2969" rx="2.5" ry="2.5" style="stroke:#181818;stroke-width:0.5;" width="130.084" x="47.96" y="197.3"/><rect fill="#F1F1F1" height="10" style="stroke:#181818;stroke-width:0.5;" width="15" x="158.044" y="202.3"/><rect fill="#F1F1F1" height="2" style="stroke:#181818;stroke-width:0.5;" width="4" x="156.044" y="204.3"/><rect fill="#F1F1F1" height="2" style="stroke:#181818;stroke-width:0.5;" width="4" x="156.044" y="208.3"/><text fill="#000000" font-family="sans-serif" font-size="14" lengthAdjust="spacing" textLength="90.084" x="62.96" y="230.2951">Nginx/HTTPS</text></g><!--entity Phoenix Release--><g class="entity" data-entity="Phoenix Release" data-source-line="6" data-uid="ent0006" id="entity_Phoenix Release"><rect fill="#F1F1F1" height="46.2969" rx="2.5" ry="2.5" style="stroke:#181818;stroke-width:0.5;" width="155.3223" x="48.34" y="320.6"/><rect fill="#F1F1F1" height="10" style="stroke:#181818;stroke-width:0.5;" width="15" x="183.6623" y="325.6"/><rect fill="#F1F1F1" height="2" style="stroke:#181818;stroke-width:0.5;" width="4" x="181.6623" y="327.6"/><rect fill="#F1F1F1" height="2" style="stroke:#181818;stroke-width:0.5;" width="4" x="181.6623" y="331.6"/><text fill="#000000" font-family="sans-serif" font-size="14" lengthAdjust="spacing" textLength="115.3223" x="63.34" y="353.5951">Phoenix Release</text></g><!--entity DB--><g class="entity" data-entity="DB" data-source-line="7" data-uid="ent0007" id="entity_DB"><path d="M93.15,453.89 C93.15,443.89 125.9991,443.89 125.9991,443.89 C125.9991,443.89 158.8482,443.89 158.8482,453.89 L158.8482,479.1869 C158.8482,489.1869 125.9991,489.1869 125.9991,489.1869 C125.9991,489.1869 93.15,489.1869 93.15,479.1869 L93.15,453.89" fill="#F1F1F1" style="stroke:#181818;stroke-width:0.5;"/><path d="M93.15,453.89 C93.15,463.89 125.9991,463.89 125.9991,463.89 C125.9991,463.89 158.8482,463.89 158.8482,453.89" fill="none" style="stroke:#181818;stroke-width:0.5;"/><text fill="#000000" font-family="sans-serif" font-size="14" lengthAdjust="spacing" textLength="45.6982" x="103.15" y="480.8851">SQLite</text></g><!--link Cliente (Browser) to Nginx/HTTPS--><g class="link" data-entity-1="Cliente (Browser)" data-entity-2="Nginx/HTTPS" data-source-line="9" data-uid="lnk8" id="link_Cliente (Browser)_Nginx/HTTPS"><path d="M113,92.5 C113,120.65 113,162.73 113,190.94" fill="none" id="Cliente (Browser)-to-Nginx/HTTPS" style="stroke:#181818;stroke-width:1;"/><polygon fill="#181818" points="113,196.94,117,187.94,113,191.94,109,187.94,113,196.94" style="stroke:#181818;stroke-width:1;"/><text fill="#000000" font-family="sans-serif" font-size="13" lengthAdjust="spacing" textLength="24.813" x="114" y="137.3669">443</text></g><!--link Nginx/HTTPS to Phoenix Release--><g class="link" data-entity-1="Nginx/HTTPS" data-entity-2="Phoenix Release" data-source-line="10" data-uid="lnk9" id="link_Nginx/HTTPS_Phoenix Release"><path d="M115.41,243.98 C117.75,265.77 120.6306,292.6242 122.9606,314.3642" fill="none" id="Nginx/HTTPS-to-Phoenix Release" style="stroke:#181818;stroke-width:1;"/><polygon fill="#181818" points="123.6,320.33,126.6181,310.955,123.0672,315.3585,118.6637,311.8075,123.6,320.33" style="stroke:#181818;stroke-width:1;"/><text fill="#000000" font-family="sans-serif" font-size="13" lengthAdjust="spacing" textLength="110.4175" x="121" y="286.6669">proxy_pass 4000</text></g><!--link Phoenix Release to DB--><g class="link" data-entity-1="Phoenix Release" data-entity-2="DB" data-source-line="11" data-uid="lnk10" id="link_Phoenix Release_DB"><path d="M126,367.18 C126,389.02 126,415.98 126,437.63" fill="none" id="Phoenix Release-to-DB" style="stroke:#181818;stroke-width:1;"/><polygon fill="#181818" points="126,443.63,130,434.63,126,438.63,122,434.63,126,443.63" style="stroke:#181818;stroke-width:1;"/><text fill="#000000" font-family="sans-serif" font-size="13" lengthAdjust="spacing" textLength="58.519" x="127" y="409.9569">Ecto/SQL</text></g><!--SRC=[ROuz2y8m48Rt_8gZamwb1JCvEDGA2YBH5XSf4isXWPAK96X5_EzUYqlLxUxbUJ-CLGZHoWHq1aC4JmPmcDSQIO5HvkpTenjNxCLCJnReRbfP1tjHVEZDHPisMPQbAAhk5rUBHhUmmngbnqvJCiWJtUJVhdN02AI7FAFKFrqGnxDXAao1ymaRQZtrtKLauspxE3RIU-1fch9VfdFc6Q6BSx09BNe3]--></g></svg>