<svg xmlns="http://www.w3.org/2000/svg" xmlns:xlink="http://www.w3.org/1999/xlink" contentStyleType="text/css" data-diagram-type="SEQUENCE" height="298px" preserveAspectRatio="none" style="width:787px;height:298px;background:#FFFFFF;" version="1.1" viewBox="0 0 787 298" width="787px" zoomAndPan="magnify"><defs/><g><g><title>User</title><rect fill="#000000" fill-opacity="0.00000" height="136.5313" width="8" x="19.9551" y="81.2969"/><line style="stroke:#181818;stroke-width:0.5;stroke-dasharray:5.0,5.0;" x1="23" x2="23" y1="81.2969" y2="217.8281"/></g><g><title>Phoenix (Checkout)</title><rect fill="#000000" fill-opacity="0.00000" height="136.5313" width="8" x="273.4229" y="81.2969"/><line style="stroke:#181818;stroke-width:0.5;stroke-dasharray:5.0,5.0;" x1="276.9678" x2="276.9678" y1="81.2969" y2="217.8281"/></g><g><title>SQLite</title><rect fill="#000000" fill-opacity="0.00000" height="136.5313" width="8" x="748.2842" y="81.2969"/><line style="stroke:#181818;stroke-width:0.5;stroke-dasharray:5.0,5.0;" x1="751.4351" x2="751.4351" y1="81.2969" y2="217.8281"/></g><g class="participant participant-head" data-participant="User"><text fill="#000000" font-family="sans-serif" font-size="14" lengthAdjust="spacing" textLength="31.9102" x="5" y="77.9951">User</text><ellipse cx="23.9551" cy="13.5" fill="#E2E2F0" rx="8" ry="8" style="stroke:#181818;stroke-width:0.5;"/><path d="M23.9551,21.5 L23.9551,48.5 M10.9551,29.5 L36.9551,29.5 M23.9551,48.5 L10.9551,63.5 M23.9551,48.5 L36.9551,63.5" fill="none" style="stroke:#181818;stroke-width:0.5;"/></g><g class="participant participant-tail" data-participant="User"><text fill="#000000" font-family="sans-serif" font-size="14" lengthAdjust="spacing" textLength="31.9102" x="5" y="229.8232">User</text><ellipse cx="23.9551" cy="241.625" fill="#E2E2F0" rx="8" ry="8" style="stroke:#181818;stroke-width:0.5;"/><path d="M23.9551,249.625 L23.9551,276.625 M10.9551,257.625 L36.9551,257.625 M23.9551,276.625 L10.9551,291.625 M23.9551,276.625 L36.9551,291.625" fill="none" style="stroke:#181818;stroke-width:0.5;"/></g><g class="participant participant-head" data-participant="API"><rect fill="#E2E2F0" height="30.2969" rx="2.5" ry="2.5" style="stroke:#181818;stroke-width:0.5;" width="150.9102" x="201.9678" y="50"/><text fill="#000000" font-family="sans-serif" font-size="14" lengthAdjust="spacing" textLength="136.9102" x="208.9678" y="69.9951">Phoenix (Checkout)</text></g><g class="participant participant-tail" data-participant="API"><rect fill="#E2E2F0" height="30.2969" rx="2.5" ry="2.5" style="stroke:#181818;stroke-width:0.5;" width="150.9102" x="201.9678" y="216.8281"/><text fill="#000000" font-family="sans-serif" font-size="14" lengthAdjust="spacing" textLength="136.9102" x="208.9678" y="236.8232">Phoenix (Checkout)</text></g><g class="participant participant-head" data-participant="DB"><text fill="#000000" font-family="sans-serif" font-size="14" lengthAdjust="spacing" textLength="45.6982" x="726.4351" y="77.9951">SQLite</text><path d="M734.2842,29 C734.2842,19 752.2842,19 752.2842,19 C752.2842,19 770.2842,19 770.2842,29 L770.2842,55 C770.2842,65 752.2842,65 752.2842,65 C752.2842,65 734.2842,65 734.2842,55 L734.2842,29" fill="#E2E2F0" style="stroke:#181818;stroke-width:1.5;"/><path d="M734.2842,29 C734.2842,39 752.2842,39 752.2842,39 C752.2842,39 770.2842,39 770.2842,29" fill="none" style="stroke:#181818;stroke-width:1.5;"/></g><g class="participant participant-tail" data-participant="DB"><text fill="#000000" font-family="sans-serif" font-size="14" lengthAdjust="spacing" textLength="45.6982" x="726.4351" y="229.8232">SQLite</text><path d="M734.2842,243.125 C734.2842,233.125 752.2842,233.125 752.2842,233.125 C752.2842,233.125 770.2842,233.125 770.2842,243.125 L770.2842,269.125 C770.2842,279.125 752.2842,279.125 752.2842,279.125 C752.2842,279.125 734.2842,279.125 734.2842,269.125 L734.2842,243.125" fill="#E2E2F0" style="stroke:#181818;stroke-width:1.5;"/><path d="M734.2842,243.125 C734.2842,253.125 752.2842,253.125 752.2842,253.125 C752.2842,253.125 770.2842,253.125 770.2842,243.125" fill="none" style="stroke:#181818;stroke-width:1.5;"/></g><g class="message" data-participant-1="User" data-participant-2="API"><polygon fill="#181818" points="265.4229,108.4297,275.4229,112.4297,265.4229,116.4297,269.4229,112.4297" style="stroke:#181818;stroke-width:1;"/><line style="stroke:#181818;stroke-width:1;" x1="23.9551" x2="271.4229" y1="112.4297" y2="112.4297"/><text fill="#000000" font-family="sans-serif" font-size="13" lengthAdjust="spacing" textLength="220.7842" x="30.9551" y="107.3638">POST /api/carts/{token}/checkout</text></g><g class="message" data-participant-1="API" data-participant-2="DB"><polygon fill="#181818" points="740.2842,137.5625,750.2842,141.5625,740.2842,145.5625,744.2842,141.5625" style="stroke:#181818;stroke-width:1;"/><line style="stroke:#181818;stroke-width:1;" x1="277.4229" x2="746.2842" y1="141.5625" y2="141.5625"/><text fill="#000000" font-family="sans-serif" font-size="13" lengthAdjust="spacing" textLength="246.2446" x="284.4229" y="136.4966">SELECT items, SELECT product stocks</text></g><g class="message" data-participant-1="API" data-participant-2="DB"><polygon fill="#181818" points="740.2842,166.6953,750.2842,170.6953,740.2842,174.6953,744.2842,170.6953" style="stroke:#181818;stroke-width:1;"/><line style="stroke:#181818;stroke-width:1;" x1="277.4229" x2="746.2842" y1="170.6953" y2="170.6953"/><text fill="#000000" font-family="sans-serif" font-size="13" lengthAdjust="spacing" textLength="450.8613" x="284.4229" y="165.6294">BEGIN; UPDATE products stock; UPDATE cart status=closed; COMMIT</text></g><g class="message" data-participant-1="API" data-participant-2="User"><polygon fill="#181818" points="34.9551,195.8281,24.9551,199.8281,34.9551,203.8281,30.9551,199.8281" style="stroke:#181818;stroke-width:1;"/><line style="stroke:#181818;stroke-width:1;stroke-dasharray:2.0,2.0;" x1="28.9551" x2="276.4229" y1="199.8281" y2="199.8281"/><text fill="#000000" font-family="sans-serif" font-size="13" lengthAdjust="spacing" textLength="229.4678" x="40.9551" y="194.7622">200 OK {ok: true, status: "closed"}</text></g><!--SRC=[LOxTQi9048NlzoaEUsN14l4oqeBveGIrIKbyW7Mpu1AR3JiJA8ZltetHGY_dp7U-6QNPUHp9U34eprRRGVKCMPsTwUqF5kdPwCwD_2AX2Dkg4ArYTL9a8EkllMLpNsI949C5h-yJX1XLMJU8r60Z7SGKNTbrfhz5-Y4K4nReB0bmdU_pj46mVTFoEGtUjQDc43lTqJy-oJ-ApmsELRPjyYT8C_aNJtT3f7YaDtrnPDeDql9mA9hP5MJtbsEiLokKErnT5uFzQ9QFMWmv5-Nj5m00]--></g></svg>