<svg xmlns="http://www.w3.org/2000/svg" xmlns:xlink="http://www.w3.org/1999/xlink" contentStyleType="text/css" data-diagram-type="CLASS" height="398px" preserveAspectRatio="none" style="width:470px;height:398px;background:#FFFFFF;" version="1.1" viewBox="0 0 470 398" width="470px" zoomAndPan="magnify"><defs/><g><!--class products--><g class="entity" data-entity="products" data-source-line="1" data-uid="ent0002" id="entity_products"><rect fill="#F1F1F1" height="178.375" rx="2.5" ry="2.5" style="stroke:#181818;stroke-width:0.5;" width="177.6484" x="7" y="7"/><ellipse cx="60.8501" cy="23" fill="#ADD1B2" rx="11" ry="11" style="stroke:#181818;stroke-width:1;"/><path d="M63.8188,28.6406 Q63.2407,28.9375 62.6001,29.0781 Q61.9595,29.2344 61.2563,29.2344 Q58.7563,29.2344 57.4282,27.5938 Q56.1157,25.9375 56.1157,22.8125 Q56.1157,19.6875 57.4282,18.0313 Q58.7563,16.375 61.2563,16.375 Q61.9595,16.375 62.6001,16.5313 Q63.2563,16.6875 63.8188,16.9844 L63.8188,19.7031 Q63.1938,19.125 62.6001,18.8594 Q62.0063,18.5781 61.3813,18.5781 Q60.0376,18.5781 59.3501,19.6563 Q58.6626,20.7188 58.6626,22.8125 Q58.6626,24.9063 59.3501,25.9844 Q60.0376,27.0469 61.3813,27.0469 Q62.0063,27.0469 62.6001,26.7813 Q63.1938,26.5 63.8188,25.9219 L63.8188,28.6406 Z " fill="#000000"/><text fill="#000000" font-family="sans-serif" font-size="14" lengthAdjust="spacing" textLength="61.4482" x="81.3501" y="27.8467">products</text><line style="stroke:#181818;stroke-width:0.5;" x1="8" x2="183.6484" y1="39" y2="39"/><ellipse cx="18" cy="52.6484" fill="none" rx="3" ry="3" style="stroke:#038048;stroke-width:1;"/><text fill="#000000" font-family="sans-serif" font-size="14" lengthAdjust="spacing" textLength="111.2686" x="27" y="55.9951">id: integer &#171;PK&#187;</text><ellipse cx="18" cy="68.9453" fill="none" rx="3" ry="3" style="stroke:#038048;stroke-width:1;"/><text fill="#000000" font-family="sans-serif" font-size="14" lengthAdjust="spacing" textLength="76.7266" x="27" y="72.292">title: string</text><ellipse cx="18" cy="85.2422" fill="none" rx="3" ry="3" style="stroke:#038048;stroke-width:1;"/><text fill="#000000" font-family="sans-serif" font-size="14" lengthAdjust="spacing" textLength="150.1719" x="27" y="88.5889">sku: string &#171;UNIQUE&#187;</text><ellipse cx="18" cy="101.5391" fill="none" rx="3" ry="3" style="stroke:#038048;stroke-width:1;"/><text fill="#000000" font-family="sans-serif" font-size="14" lengthAdjust="spacing" textLength="139.0977" x="27" y="104.8857">price_cents: integer</text><ellipse cx="18" cy="117.8359" fill="none" rx="3" ry="3" style="stroke:#038048;stroke-width:1;"/><text fill="#000000" font-family="sans-serif" font-size="14" lengthAdjust="spacing" textLength="96.4414" x="27" y="121.1826">stock: integer</text><ellipse cx="18" cy="134.1328" fill="none" rx="3" ry="3" style="stroke:#038048;stroke-width:1;"/><text fill="#000000" font-family="sans-serif" font-size="14" lengthAdjust="spacing" textLength="118.4805" x="27" y="137.4795">image_url: string</text><ellipse cx="18" cy="150.4297" fill="none" rx="3" ry="3" style="stroke:#038048;stroke-width:1;"/><text fill="#000000" font-family="sans-serif" font-size="14" lengthAdjust="spacing" textLength="150.8486" x="27" y="153.7764">inserted_at: datetime</text><ellipse cx="18" cy="166.7266" fill="none" rx="3" ry="3" style="stroke:#038048;stroke-width:1;"/><text fill="#000000" font-family="sans-serif" font-size="14" lengthAdjust="spacing" textLength="151.6484" x="27" y="170.0732">updated_at: datetime</text><line style="stroke:#181818;stroke-width:0.5;" x1="8" x2="183.6484" y1="177.375" y2="177.375"/></g><!--class carts--><g class="entity" data-entity="carts" data-source-line="12" data-uid="ent0003" id="entity_carts"><rect fill="#F1F1F1" height="129.4844" rx="2.5" ry="2.5" style="stroke:#181818;stroke-width:0.5;" width="244.1074" x="219.77" y="31.45"/><ellipse cx="320.166" cy="47.45" fill="#ADD1B2" rx="11" ry="11" style="stroke:#181818;stroke-width:1;"/><path d="M323.1347,53.0906 Q322.5566,53.3875 321.916,53.5281 Q321.2754,53.6844 320.5722,53.6844 Q318.0722,53.6844 316.7441,52.0438 Q315.4316,50.3875 315.4316,47.2625 Q315.4316,44.1375 316.7441,42.4813 Q318.0722,40.825 320.5722,40.825 Q321.2754,40.825 321.916,40.9813 Q322.5722,41.1375 323.1347,41.4344 L323.1347,44.1531 Q322.5097,43.575 321.916,43.3094 Q321.3222,43.0281 320.6972,43.0281 Q319.3535,43.0281 318.666,44.1063 Q317.9785,45.1688 317.9785,47.2625 Q317.9785,49.3563 318.666,50.4344 Q319.3535,51.4969 320.6972,51.4969 Q321.3222,51.4969 321.916,51.2313 Q322.5097,50.95 323.1347,50.3719 L323.1347,53.0906 Z " fill="#000000"/><text fill="#000000" font-family="sans-serif" font-size="14" lengthAdjust="spacing" textLength="34.8154" x="340.666" y="52.2967">carts</text><line style="stroke:#181818;stroke-width:0.5;" x1="220.77" x2="462.8774" y1="63.45" y2="63.45"/><ellipse cx="230.77" cy="77.0984" fill="none" rx="3" ry="3" style="stroke:#038048;stroke-width:1;"/><text fill="#000000" font-family="sans-serif" font-size="14" lengthAdjust="spacing" textLength="111.2686" x="239.77" y="80.4451">id: integer &#171;PK&#187;</text><ellipse cx="230.77" cy="93.3953" fill="none" rx="3" ry="3" style="stroke:#038048;stroke-width:1;"/><text fill="#000000" font-family="sans-serif" font-size="14" lengthAdjust="spacing" textLength="155.8799" x="239.77" y="96.742">token: uuid &#171;UNIQUE&#187;</text><ellipse cx="230.77" cy="109.6922" fill="none" rx="3" ry="3" style="stroke:#038048;stroke-width:1;"/><text fill="#000000" font-family="sans-serif" font-size="14" lengthAdjust="spacing" textLength="150.8486" x="239.77" y="113.0389">inserted_at: datetime</text><ellipse cx="230.77" cy="125.9891" fill="none" rx="3" ry="3" style="stroke:#038048;stroke-width:1;"/><text fill="#000000" font-family="sans-serif" font-size="14" lengthAdjust="spacing" textLength="151.6484" x="239.77" y="129.3357">updated_at: datetime</text><line style="stroke:#181818;stroke-width:0.5;" x1="220.77" x2="462.8774" y1="136.6375" y2="136.6375"/><ellipse cx="230.77" cy="150.2859" fill="#84BE84" rx="3" ry="3" style="stroke:#038048;stroke-width:1;"/><text fill="#000000" font-family="sans-serif" font-size="14" lengthAdjust="spacing" textLength="218.1074" x="239.77" y="153.6326">status: string ("open"|"closed")</text></g><!--class cart_items--><g class="entity" data-entity="cart_items" data-source-line="20" data-uid="ent0004" id="entity_cart_items"><rect fill="#F1F1F1" height="145.7813" rx="2.5" ry="2.5" style="stroke:#181818;stroke-width:0.5;" width="198.0332" x="119.81" y="245.38"/><ellipse cx="177.8539" cy="261.38" fill="#ADD1B2" rx="11" ry="11" style="stroke:#181818;stroke-width:1;"/><path d="M180.8227,267.0206 Q180.2446,267.3175 179.6039,267.4581 Q178.9633,267.6144 178.2602,267.6144 Q175.7602,267.6144 174.4321,265.9738 Q173.1196,264.3175 173.1196,261.1925 Q173.1196,258.0675 174.4321,256.4113 Q175.7602,254.755 178.2602,254.755 Q178.9633,254.755 179.6039,254.9113 Q180.2602,255.0675 180.8227,255.3644 L180.8227,258.0831 Q180.1977,257.505 179.6039,257.2394 Q179.0102,256.9581 178.3852,256.9581 Q177.0414,256.9581 176.3539,258.0363 Q175.6664,259.0988 175.6664,261.1925 Q175.6664,263.2863 176.3539,264.3644 Q177.0414,265.4269 178.3852,265.4269 Q179.0102,265.4269 179.6039,265.1613 Q180.1977,264.88 180.8227,264.3019 L180.8227,267.0206 Z " fill="#000000"/><text fill="#000000" font-family="sans-serif" font-size="14" lengthAdjust="spacing" textLength="73.4453" x="198.3539" y="266.2267">cart_items</text><line style="stroke:#181818;stroke-width:0.5;" x1="120.81" x2="316.8432" y1="277.38" y2="277.38"/><ellipse cx="130.81" cy="291.0284" fill="none" rx="3" ry="3" style="stroke:#038048;stroke-width:1;"/><text fill="#000000" font-family="sans-serif" font-size="14" lengthAdjust="spacing" textLength="111.2686" x="139.81" y="294.3751">id: integer &#171;PK&#187;</text><ellipse cx="130.81" cy="307.3253" fill="none" rx="3" ry="3" style="stroke:#038048;stroke-width:1;"/><text fill="#000000" font-family="sans-serif" font-size="14" lengthAdjust="spacing" textLength="145.4004" x="139.81" y="310.672">cart_id: integer &#171;FK&#187;</text><ellipse cx="130.81" cy="323.6222" fill="none" rx="3" ry="3" style="stroke:#038048;stroke-width:1;"/><text fill="#000000" font-family="sans-serif" font-size="14" lengthAdjust="spacing" textLength="172.0332" x="139.81" y="326.9689">product_id: integer &#171;FK&#187;</text><ellipse cx="130.81" cy="339.9191" fill="none" rx="3" ry="3" style="stroke:#038048;stroke-width:1;"/><text fill="#000000" font-family="sans-serif" font-size="14" lengthAdjust="spacing" textLength="117.6533" x="139.81" y="343.2657">quantity: integer</text><ellipse cx="130.81" cy="356.2159" fill="none" rx="3" ry="3" style="stroke:#038048;stroke-width:1;"/><text fill="#000000" font-family="sans-serif" font-size="14" lengthAdjust="spacing" textLength="150.8486" x="139.81" y="359.5626">inserted_at: datetime</text><ellipse cx="130.81" cy="372.5128" fill="none" rx="3" ry="3" style="stroke:#038048;stroke-width:1;"/><text fill="#000000" font-family="sans-serif" font-size="14" lengthAdjust="spacing" textLength="151.6484" x="139.81" y="375.8595">updated_at: datetime</text><line style="stroke:#181818;stroke-width:0.5;" x1="120.81" x2="316.8432" y1="383.1613" y2="383.1613"/></g><!--reverse link products to cart_items--><g class="link" data-entity-1="products" data-entity-2="cart_items" data-source-line="29" data-uid="lnk5" id="link_products_cart_items"><path codeLine="29" d="M148.2481,190.987 C159.2681,210.697 167.88,226.13 178.48,245.08" fill="none" id="products-backto-cart_items" style="stroke:#181818;stroke-width:1;stroke-dasharray:7.0,7.0;"/><polygon fill="#181818" points="145.32,185.75,146.2207,195.5576,147.76,190.1142,153.2034,191.6535,145.32,185.75" style="stroke:#181818;stroke-width:1;"/><text fill="#000000" font-family="sans-serif" font-size="13" lengthAdjust="spacing" textLength="8.271" x="140.9562" y="205.5569">1</text><text fill="#000000" font-family="sans-serif" font-size="13" lengthAdjust="spacing" textLength="36.5625" x="136.7642" y="234.2104">many</text></g><!--reverse link carts to cart_items--><g class="link" data-entity-1="carts" data-entity-2="cart_items" data-source-line="30" data-uid="lnk6" id="link_carts_cart_items"><path codeLine="30" d="M303.1531,166.3777 C288.4731,192.6477 274.33,217.96 259.2,245.03" fill="none" id="carts-backto-cart_items" style="stroke:#181818;stroke-width:1;stroke-dasharray:7.0,7.0;"/><polygon fill="#181818" points="306.08,161.14,298.1979,167.0453,303.6409,165.5047,305.1815,170.9478,306.08,161.14" style="stroke:#181818;stroke-width:1;"/><text fill="#000000" font-family="sans-serif" font-size="13" lengthAdjust="spacing" textLength="8.271" x="293.7479" y="181.1381">1</text><text fill="#000000" font-family="sans-serif" font-size="13" lengthAdjust="spacing" textLength="36.5625" x="225.3593" y="234.4076">many</text></g><!--SRC=[fL71gi903BptAyAU547mMeet1H543vxBiXjAQBjRDzc3gF-kRR5OGHyFZvcPX9cCgJGpDC7RQ8JXaW3CoAP0Jh3005cstowNBIea5QR04iWLBS1bV8uFsN6tEHnNlRG9P30tw8I7Izs6U5EE4AfrWNaCrUjXSen1qEPQKh1QKAZ6beXDExtXjoGnNGYZmny9V8akXHZ9lXbcqH9vI3DHla6dhifKdj6gwO-kSXAilrhhLIDglNq-i-lc0tkAsZsQEO-_-b-hG_zgeI2Rpq7LsftLY_ca_-v7_Wu0]--></g></svg>